<?xml version="1.0" standalone="no"?>
<!DOCTYPE svg PUBLIC "-//W3C//DTD SVG 20010904//EN"
 "http://www.w3.org/TR/2001/REC-SVG-20010904/DTD/svg10.dtd">
<svg version="1.0" xmlns="http://www.w3.org/2000/svg"
 width="455.000000pt" height="455.000000pt" viewBox="0 0 455.000000 455.000000"
 preserveAspectRatio="xMidYMid meet">
<metadata>
Created by potrace 1.14, written by Peter Selinger 2001-2017
</metadata>
<g transform="translate(0.000000,455.000000) scale(0.100000,-0.100000)"
fill="#000000" stroke="none">
<path d="M2349 4505 c-204 -66 -409 -271 -482 -483 -26 -76 -29 -96 -25 -171
5 -100 41 -187 81 -196 12 -3 60 -14 107 -25 47 -11 109 -20 139 -20 52 0 53
-1 38 -18 -32 -35 -22 -45 35 -39 158 19 357 204 473 440 54 110 75 188 75
277 0 205 -201 312 -441 235z"/>
<path d="M2950 3998 c-151 -51 -293 -144 -320 -208 -17 -40 -8 -111 19 -148
20 -29 24 -30 125 -37 140 -10 232 11 278 61 9 11 24 46 33 78 23 80 16 164
-19 214 -40 57 -52 62 -116 40z"/>
<path d="M3310 3737 c-126 -24 -209 -86 -246 -184 -16 -42 -16 -45 3 -71 39
-53 132 -96 249 -116 48 -8 146 76 185 158 16 33 29 75 29 92 0 37 -18 94 -35
112 -17 19 -109 23 -185 9z"/>
<path d="M2648 3501 c-1 -6 -61 -15 -133 -21 -642 -53 -1013 -222 -1223 -559
-87 -140 -110 -210 -173 -541 -40 -210 -81 -335 -178 -535 -91 -187 -196 -365
-331 -560 -110 -158 -139 -219 -177 -373 -24 -95 -27 -125 -27 -267 1 -189 19
-270 86 -397 71 -133 195 -226 315 -236 29 -3 97 1 150 7 515 63 952 279 1516
748 519 432 794 739 964 1077 161 321 195 641 98 925 -30 88 -94 213 -146 282
-149 202 -397 371 -642 439 -81 23 -94 24 -99 11z"/>
<path d="M3609 3387 c-117 -40 -199 -111 -199 -172 0 -33 9 -44 100 -113 19
-15 30 -32 30 -49 0 -25 2 -25 45 -20 116 16 253 114 275 197 26 95 -51 181
-160 180 -14 0 -55 -11 -91 -23z"/>
<path d="M3804 2900 c-110 -26 -195 -147 -150 -214 8 -14 36 -39 61 -56 50
-34 53 -44 28 -73 -18 -20 -17 -20 38 -14 172 20 264 98 276 237 5 53 4 57
-26 83 -51 43 -142 58 -227 37z"/>
</g>
</svg>
