<?xml version="1.0" standalone="no"?>
<!DOCTYPE svg PUBLIC "-//W3C//DTD SVG 20010904//EN"
 "http://www.w3.org/TR/2001/REC-SVG-20010904/DTD/svg10.dtd">
<svg version="1.0" xmlns="http://www.w3.org/2000/svg"
 width="750.000000pt" height="750.000000pt" viewBox="0 0 750.000000 750.000000"
 preserveAspectRatio="xMidYMid meet">
<metadata>
Created by potrace 1.14, written by Peter Selinger 2001-2017
</metadata>
<g transform="translate(0.000000,750.000000) scale(0.100000,-0.100000)"
fill="#000000" stroke="none">
<path d="M2733 7286 c-408 -78 -725 -372 -835 -774 -18 -64 -22 -114 -26 -302
-4 -219 -10 -260 -35 -260 -7 0 -56 22 -109 49 -392 197 -871 112 -1184 -211
-136 -140 -220 -287 -272 -476 l-27 -97 -3 -2512 -2 -2513 3505 0 3505 0 0
2489 c0 2703 3 2551 -54 2717 -175 514 -728 813 -1246 674 -41 -12 -123 -44
-182 -72 -58 -28 -113 -48 -121 -45 -12 4 -16 46 -20 229 -6 234 -14 293 -62
429 -69 199 -222 392 -407 515 -258 172 -579 219 -873 127 -174 -55 -359 -177
-466 -308 -29 -36 -59 -65 -66 -65 -8 0 -60 47 -116 104 -151 153 -292 236
-485 287 -100 27 -317 34 -419 15z m337 -312 c92 -27 187 -83 267 -157 121
-114 201 -250 244 -419 19 -73 22 -118 26 -366 5 -320 -3 -410 -49 -549 -75
-227 -235 -405 -436 -487 -74 -30 -82 -31 -227 -31 -137 1 -156 3 -217 27
-196 75 -344 226 -431 438 -62 152 -62 154 -62 545 0 346 1 363 23 440 89 308
307 526 575 575 70 12 220 4 287 -16z m1710 0 c108 -31 190 -83 285 -179 139
-139 219 -304 245 -508 17 -127 8 -619 -13 -710 -65 -280 -250 -503 -487 -589
-57 -20 -83 -23 -210 -23 -131 1 -151 3 -212 27 -244 93 -424 317 -482 601
-23 110 -23 654 0 764 68 332 299 581 587 633 70 12 220 4 287 -16z m-3320
-1163 c256 -81 462 -341 510 -643 8 -49 10 -178 8 -393 -4 -285 -7 -328 -25
-390 -64 -220 -173 -377 -338 -485 -99 -64 -186 -91 -311 -98 -167 -8 -296 31
-431 131 -130 97 -248 285 -295 472 -22 85 -23 110 -23 415 0 304 1 331 22
413 44 172 122 306 246 424 85 81 201 144 307 168 88 20 244 13 330 -14z
m4894 14 c141 -30 296 -131 391 -256 60 -81 128 -220 157 -324 21 -75 22 -101
23 -400 0 -236 -4 -338 -14 -390 -67 -334 -281 -579 -559 -641 -99 -22 -252
-15 -342 15 -241 82 -418 293 -493 589 -20 81 -22 110 -21 407 0 313 1 322 26
417 48 176 122 303 244 417 162 151 375 211 588 166z m-2455 -1870 c431 -61
833 -266 1151 -586 261 -263 434 -581 481 -883 18 -112 7 -278 -23 -358 -72
-192 -217 -334 -403 -395 -66 -21 -99 -26 -190 -26 -94 0 -122 4 -190 27 -258
88 -409 287 -434 572 -6 60 -17 130 -26 156 -37 106 -165 199 -320 234 -99 21
-360 30 -481 15 -110 -14 -224 -48 -283 -85 -55 -35 -118 -111 -135 -164 -9
-26 -20 -97 -25 -158 -20 -225 -106 -379 -277 -493 -239 -160 -544 -135 -760
62 -116 106 -198 275 -211 435 -16 219 80 532 237 771 302 460 832 795 1385
876 124 18 377 18 504 0z"/>
</g>
</svg>
